{
  "accessors": [
    {
      "bufferView": 2,
      "componentType": 5126,
      "count": 2179,
      "max": [
        1.6155271530151367,
        0.14189398288726807,
        0.843541145324707
      ],
      "min": [
        -1.6155052185058594,
        -1.2241047620773315,
        -0.843541145324707
      ],
      "type": "VEC3"
    },
    {
      "bufferView": 2,
      "byteOffset": 26148,
      "componentType": 5126,
      "count": 2179,
      "max": [
        1.0,
        1.0,
        1.0
      ],
      "min": [
        -1.0,
        -1.0,
        -1.0
      ],
      "type": "VEC3"
    },
    {
      "bufferView": 3,
      "componentType": 5126,
      "count": 2179,
      "max": [
        1.0,
        0.9984311461448669,
        1.0,
        1.0
      ],
      "min": [
        -1.0,
        -0.9983060956001282,
        -1.0,
        -1.0
      ],
      "type": "VEC4"
    },
    {
      "bufferView": 1,
      "componentType": 5126,
      "count": 2179,
      "max": [
        1.029852271080017,
        0.9684461951255798
      ],
      "min": [
        0.0027819275856018066,
        -0.012208222411572933
      ],
      "type": "VEC2"
    },
    {
      "bufferView": 0,
      "componentType": 5125,
      "count": 6948,
      "type": "SCALAR"
    },
    {
      "bufferView": 2,
      "byteOffset": 52296,
      "componentType": 5126,
      "count": 2020,
      "max": [
        0.5880637168884277,
        1.7763445377349854,
        0.5383548736572266
      ],
      "min": [
        -0.5880641937255859,
        -0.250713050365448,
        -1.3475704193115234
      ],
      "type": "VEC3"
    },
    {
      "bufferView": 2,
      "byteOffset": 76536,
      "componentType": 5126,
      "count": 2020,
      "max": [
        1.0,
        1.0,
        1.0
      ],
      "min": [
        -1.0,
        -1.0,
        -1.0
      ],
      "type": "VEC3"
    },
    {
      "bufferView": 3,
      "byteOffset": 34864,
      "componentType": 5126,
      "count": 2020,
      "max": [
        1.0,
        0.9731114506721497,
        1.0,
        1.0
      ],
      "min": [
        -0.9999389052391052,
        -0.9690937399864197,
        -1.0,
        -1.0
      ],
      "type": "VEC4"
    },
    {
      "bufferView": 1,
      "byteOffset": 17432,
      "componentType": 5126,
      "count": 2020,
      "max": [
        0.9949488639831543,
        1.0
      ],
      "min": [
        0.0,
        0.0
      ],
      "type": "VEC2"
    },
    {
      "bufferView": 0,
      "byteOffset": 27792,
      "componentType": 5125,
      "count": 8634,
      "type": "SCALAR"
    },
    {
      "bufferView": 2,
      "byteOffset": 100776,
      "componentType": 5126,
      "count": 2306,
      "max": [
        2.499999523162842,
        8.045793533325195,
        2.0000076293945313
      ],
      "min": [
        -2.7050089836120605,
        0.07089047878980637,
        -2.1999075412750244
      ],
      "type": "VEC3"
    },
    {
      "bufferView": 2,
      "byteOffset": 128448,
      "componentType": 5126,
      "count": 2306,
      "max": [
        1.0,
        1.0,
        1.0
      ],
      "min": [
        -1.0,
        -1.0,
        -1.0
      ],
      "type": "VEC3"
    },
    {
      "bufferView": 3,
      "byteOffset": 67184,
      "componentType": 5126,
      "count": 2306,
      "max": [
        1.0,
        1.0,
        1.0,
        1.0
      ],
      "min": [
        -0.9999932050704956,
        -1.0,
        -1.0,
        -1.0
      ],
      "type": "VEC4"
    },
    {
      "bufferView": 1,
      "byteOffset": 33592,
      "componentType": 5126,
      "count": 2306,
      "max": [
        0.9981651306152344,
        1.0
      ],
      "min": [
        0.0,
        -0.0010300471913069487
      ],
      "type": "VEC2"
    },
    {
      "bufferView": 0,
      "byteOffset": 62328,
      "componentType": 5125,
      "count": 6942,
      "type": "SCALAR"
    },
    {
      "bufferView": 2,
      "byteOffset": 156120,
      "componentType": 5126,
      "count": 580,
      "max": [
        1.0056604146957397,
        0.32942652702331543,
        0.3294271230697632
      ],
      "min": [
        -1.0056610107421875,
        -0.3294334411621094,
        -0.3294260501861572
      ],
      "type": "VEC3"
    },
    {
      "bufferView": 2,
      "byteOffset": 163080,
      "componentType": 5126,
      "count": 580,
      "max": [
        0.9759811162948608,
        1.0,
        0.9934951066970825
      ],
      "min": [
        -0.9792887568473816,
        -1.0,
        -0.9934958219528198
      ],
      "type": "VEC3"
    },
    {
      "bufferView": 3,
      "byteOffset": 104080,
      "componentType": 5126,
      "count": 580,
      "max": [
        0.9972413778305054,
        0.998370885848999,
        0.9999237656593323,
        1.0
      ],
      "min": [
        -0.9997641444206238,
        -0.9975336194038391,
        -0.9999913573265076,
        -1.0
      ],
      "type": "VEC4"
    },
    {
      "bufferView": 1,
      "byteOffset": 52040,
      "componentType": 5126,
      "count": 580,
      "max": [
        0.9956294298171997,
        0.9881888628005981
      ],
      "min": [
        0.0,
        0.0
      ],
      "type": "VEC2"
    },
    {
      "bufferView": 0,
      "byteOffset": 90096,
      "componentType": 5125,
      "count": 2376,
      "type": "SCALAR"
    },
    {
      "bufferView": 2,
      "byteOffset": 170040,
      "componentType": 5126,
      "count": 1778,
      "max": [
        -2.3344452381134033,
        0.5665390491485596,
        6.326280117034912
      ],
      "min": [
        -3.9258134365081787,
        0.18010210990905762,
        4.957684516906738
      ],
      "type": "VEC3"
    },
    {
      "bufferView": 2,
      "byteOffset": 191376,
      "componentType": 5126,
      "count": 1778,
      "max": [
        0.9995495080947876,
        1.0,
        1.0
      ],
      "min": [
        -0.9984654188156128,
        -1.0,
        -0.999922513961792
      ],
      "type": "VEC3"
    },
    {
      "bufferView": 3,
      "byteOffset": 113360,
      "componentType": 5126,
      "count": 1778,
      "max": [
        0.9999136924743652,
        0.9994150996208191,
        0.9975341558456421,
        1.0
      ],
      "min": [
        -0.9997443556785583,
        -0.998979389667511,
        -0.9997944235801697,
        -1.0
      ],
      "type": "VEC4"
    },
    {
      "bufferView": 1,
      "byteOffset": 56680,
      "componentType": 5126,
      "count": 1778,
      "max": [
        1.0,
        0.9949996471405029
      ],
      "min": [
        0.0,
        0.0
      ],
      "type": "VEC2"
    },
    {
      "bufferView": 0,
      "byteOffset": 99600,
      "componentType": 5125,
      "count": 5592,
      "type": "SCALAR"
    },
    {
      "bufferView": 2,
      "byteOffset": 212712,
      "componentType": 5126,
      "count": 1982,
      "max": [
        1.738919734954834,
        2.1872658729553223,
        2.3006844520568848
      ],
      "min": [
        -1.738919734954834,
        -1.6000001430511475,
        -2.3006844520568848
      ],
      "type": "VEC3"
    },
    {
      "bufferView": 2,
      "byteOffset": 236496,
      "componentType": 5126,
      "count": 1982,
      "max": [
        1.0,
        1.0,
        1.0
      ],
      "min": [
        -1.0,
        -1.0,
        -1.0
      ],
      "type": "VEC3"
    },
    {
      "bufferView": 3,
      "byteOffset": 141808,
      "componentType": 5126,
      "count": 1982,
      "max": [
        1.0,
        1.0,
        1.0,
        1.0
      ],
      "min": [
        -1.0,
        -1.0,
        -1.0,
        -1.0
      ],
      "type": "VEC4"
    },
    {
      "bufferView": 1,
      "byteOffset": 70904,
      "componentType": 5126,
      "count": 1982,
      "max": [
        0.9880350232124329,
        1.0
      ],
      "min": [
        0.0,
        0.0
      ],
      "type": "VEC2"
    },
    {
      "bufferView": 0,
      "byteOffset": 121968,
      "componentType": 5125,
      "count": 6120,
      "type": "SCALAR"
    },
    {
      "bufferView": 2,
      "byteOffset": 260280,
      "componentType": 5126,
      "count": 121,
      "max": [
        10.0,
        0.0,
        10.0
      ],
      "min": [
        -10.0,
        0.0,
        -10.0
      ],
      "type": "VEC3"
    },
    {
      "bufferView": 2,
      "byteOffset": 261732,
      "componentType": 5126,
      "count": 121,
      "max": [
        0.0,
        1.0,
        0.0
      ],
      "min": [
        0.0,
        1.0,
        0.0
      ],
      "type": "VEC3"
    },
    {
      "bufferView": 1,
      "byteOffset": 86760,
      "componentType": 5126,
      "count": 121,
      "max": [
        1.0,
        1.0
      ],
      "min": [
        0.0,
        0.0
      ],
      "type": "VEC2"
    },
    {
      "bufferView": 0,
      "byteOffset": 146448,
      "componentType": 5125,
      "count": 600,
      "type": "SCALAR"
    },
    {
      "bufferView": 2,
      "byteOffset": 263184,
      "componentType": 5126,
      "count": 121,
      "max": [
        10.0,
        0.0,
        10.0
      ],
      "min": [
        -10.0,
        0.0,
        -10.0
      ],
      "type": "VEC3"
    },
    {
      "bufferView": 2,
      "byteOffset": 264636,
      "componentType": 5126,
      "count": 121,
      "max": [
        0.0,
        1.0,
        0.0
      ],
      "min": [
        0.0,
        1.0,
        0.0
      ],
      "type": "VEC3"
    },
    {
      "bufferView": 1,
      "byteOffset": 87728,
      "componentType": 5126,
      "count": 121,
      "max": [
        1.0,
        1.0
      ],
      "min": [
        0.0,
        0.0
      ],
      "type": "VEC2"
    },
    {
      "bufferView": 0,
      "byteOffset": 148848,
      "componentType": 5125,
      "count": 600,
      "type": "SCALAR"
    }
  ],
  "asset": {
    "extras": {
      "author": "heathermichno (https://sketchfab.com/heathermichno)",
      "license": "CC-BY-4.0 (http://creativecommons.org/licenses/by/4.0/)",
      "source": "https://sketchfab.com/3d-models/pet-props-98624c5ba3db4767b7eab3103959142e",
      "title": "Pet Props"
    },
    "generator": "Sketchfab-12.67.0",
    "version": "2.0"
  },
  "bufferViews": [
    {
      "buffer": 0,
      "byteLength": 151248,
      "name": "floatBufferViews",
      "target": 34963
    },
    {
      "buffer": 0,
      "byteLength": 88696,
      "byteOffset": 151248,
      "byteStride": 8,
      "name": "floatBufferViews",
      "target": 34962
    },
    {
      "buffer": 0,
      "byteLength": 266088,
      "byteOffset": 239944,
      "byteStride": 12,
      "name": "floatBufferViews",
      "target": 34962
    },
    {
      "buffer": 0,
      "byteLength": 173520,
      "byteOffset": 506032,
      "byteStride": 16,
      "name": "floatBufferViews",
      "target": 34962
    }
  ],
  "buffers": [
    {
      "byteLength": 679552,
      "uri": "scene.bin"
    }
  ],
  "images": [
    {
      "uri": "textures/M_FoodBowl_baseColor.png"
    },
    {
      "uri": "textures/M_FoodBowl_metallicRoughness.png"
    },
    {
      "uri": "textures/M_FoodBowl_normal.png"
    },
    {
      "uri": "textures/M_Waterbowl_baseColor.png"
    },
    {
      "uri": "textures/M_Waterbowl_metallicRoughness.png"
    },
    {
      "uri": "textures/M_Waterbowl_normal.png"
    },
    {
      "uri": "textures/M_CatTree_baseColor.png"
    },
    {
      "uri": "textures/M_CatTree_metallicRoughness.png"
    },
    {
      "uri": "textures/M_CatTree_normal.png"
    },
    {
      "uri": "textures/M_Toy_baseColor.png"
    },
    {
      "uri": "textures/M_Toy_metallicRoughness.png"
    },
    {
      "uri": "textures/M_Toy_normal.png"
    },
    {
      "uri": "textures/M_Collar_baseColor.png"
    },
    {
      "uri": "textures/M_Collar_metallicRoughness.png"
    },
    {
      "uri": "textures/M_Collar_normal.png"
    },
    {
      "uri": "textures/M_litterbox_baseColor.png"
    },
    {
      "uri": "textures/M_litterbox_metallicRoughness.png"
    },
    {
      "uri": "textures/M_litterbox_normal.png"
    },
    {
      "uri": "textures/M_ground_baseColor.png"
    }
  ],
  "materials": [
    {
      "doubleSided": true,
      "name": "M_FoodBowl",
      "normalTexture": {
        "index": 2
      },
      "occlusionTexture": {
        "index": 1
      },
      "pbrMetallicRoughness": {
        "baseColorTexture": {
          "index": 0
        },
        "metallicRoughnessTexture": {
          "index": 1
        }
      }
    },
    {
      "doubleSided": true,
      "name": "M_Waterbowl",
      "normalTexture": {
        "index": 5
      },
      "occlusionTexture": {
        "index": 4
      },
      "pbrMetallicRoughness": {
        "baseColorTexture": {
          "index": 3
        },
        "metallicRoughnessTexture": {
          "index": 4
        }
      }
    },
    {
      "doubleSided": true,
      "name": "M_CatTree",
      "normalTexture": {
        "index": 8
      },
      "occlusionTexture": {
        "index": 7
      },
      "pbrMetallicRoughness": {
        "baseColorTexture": {
          "index": 6
        },
        "metallicRoughnessTexture": {
          "index": 7
        }
      }
    },
    {
      "doubleSided": true,
      "name": "M_Toy",
      "normalTexture": {
        "index": 11
      },
      "occlusionTexture": {
        "index": 10
      },
      "pbrMetallicRoughness": {
        "baseColorTexture": {
          "index": 9
        },
        "metallicRoughnessTexture": {
          "index": 10
        }
      }
    },
    {
      "doubleSided": true,
      "name": "M_Collar",
      "normalTexture": {
        "index": 14
      },
      "occlusionTexture": {
        "index": 13
      },
      "pbrMetallicRoughness": {
        "baseColorTexture": {
          "index": 12
        },
        "metallicRoughnessTexture": {
          "index": 13
        }
      }
    },
    {
      "doubleSided": true,
      "name": "M_litterbox",
      "normalTexture": {
        "index": 17
      },
      "occlusionTexture": {
        "index": 16
      },
      "pbrMetallicRoughness": {
        "baseColorTexture": {
          "index": 15
        },
        "metallicRoughnessTexture": {
          "index": 16
        }
      }
    },
    {
      "doubleSided": true,
      "name": "M_ground",
      "pbrMetallicRoughness": {
        "baseColorTexture": {
          "index": 18
        },
        "metallicFactor": 0.0,
        "roughnessFactor": 0.6
      }
    },
    {
      "doubleSided": true,
      "name": "M_wall",
      "pbrMetallicRoughness": {
        "baseColorFactor": [
          0.4658348552926145,
          0.34743948653678586,
          0.34743948653678586,
          1.0
        ],
        "metallicFactor": 0.0,
        "roughnessFactor": 0.6
      }
    }
  ],
  "meshes": [
    {
      "name": "bowl_food_M_FoodBowl_0",
      "primitives": [
        {
          "attributes": {
            "NORMAL": 1,
            "POSITION": 0,
            "TANGENT": 2,
            "TEXCOORD_0": 3
          },
          "indices": 4,
          "material": 0,
          "mode": 4
        }
      ]
    },
    {
      "name": "bowl_water_M_Waterbowl_0",
      "primitives": [
        {
          "attributes": {
            "NORMAL": 6,
            "POSITION": 5,
            "TANGENT": 7,
            "TEXCOORD_0": 8
          },
          "indices": 9,
          "material": 1,
          "mode": 4
        }
      ]
    },
    {
      "name": "cat_tree_M_CatTree_0",
      "primitives": [
        {
          "attributes": {
            "NORMAL": 11,
            "POSITION": 10,
            "TANGENT": 12,
            "TEXCOORD_0": 13
          },
          "indices": 14,
          "material": 2,
          "mode": 4
        }
      ]
    },
    {
      "name": "toy_busybuddy_M_Toy_0",
      "primitives": [
        {
          "attributes": {
            "NORMAL": 16,
            "POSITION": 15,
            "TANGENT": 17,
            "TEXCOORD_0": 18
          },
          "indices": 19,
          "material": 3,
          "mode": 4
        }
      ]
    },
    {
      "name": "pCube2_M_Collar_0",
      "primitives": [
        {
          "attributes": {
            "NORMAL": 21,
            "POSITION": 20,
            "TANGENT": 22,
            "TEXCOORD_0": 23
          },
          "indices": 24,
          "material": 4,
          "mode": 4
        }
      ]
    },
    {
      "name": "pCube3_M_litterbox_0",
      "primitives": [
        {
          "attributes": {
            "NORMAL": 26,
            "POSITION": 25,
            "TANGENT": 27,
            "TEXCOORD_0": 28
          },
          "indices": 29,
          "material": 5,
          "mode": 4
        }
      ]
    },
    {
      "name": "pPlane1_M_ground_0",
      "primitives": [
        {
          "attributes": {
            "NORMAL": 31,
            "POSITION": 30,
            "TEXCOORD_0": 32
          },
          "indices": 33,
          "material": 6,
          "mode": 4
        }
      ]
    },
    {
      "name": "pPlane2_M_wall_0",
      "primitives": [
        {
          "attributes": {
            "NORMAL": 35,
            "POSITION": 34,
            "TEXCOORD_0": 36
          },
          "indices": 37,
          "material": 7,
          "mode": 4
        }
      ]
    }
  ],
  "nodes": [
    {
      "children": [
        1
      ],
      "matrix": [
        1.0,
        0.0,
        0.0,
        0.0,
        0.0,
        2.220446049250313e-16,
        -1.0,
        0.0,
        0.0,
        1.0,
        2.220446049250313e-16,
        0.0,
        0.0,
        0.0,
        0.0,
        1.0
      ],
      "name": "Sketchfab_model"
    },
    {
      "children": [
        2
      ],
      "matrix": [
        0.009999999776482582,
        0.0,
        0.0,
        0.0,
        0.0,
        0.0,
        0.009999999776482582,
        0.0,
        0.0,
        -0.009999999776482582,
        0.0,
        0.0,
        0.0,
        0.0,
        0.0,
        1.0
      ],
      "name": "b2063837b54646d1af13411e9d5df594.fbx"
    },
    {
      "children": [
        3,
        5,
        7,
        9,
        11,
        13,
        15,
        17
      ],
      "name": "RootNode"
    },
    {
      "children": [
        4
      ],
      "matrix": [
        0.018327662822991142,
        0.0,
        0.999832034281482,
        0.0,
        0.0,
        1.0,
        0.0,
        0.0,
        -0.999832034281482,
        0.0,
        0.018327662822991142,
        0.0,
        7.2128682136535645,
        1.234440803527832,
        3.0885543823242188,
        1.0
      ],
      "name": "bowl_food"
    },
    {
      "mesh": 0,
      "name": "bowl_food_M_FoodBowl_0"
    },
    {
      "children": [
        6
      ],
      "matrix": [
        -0.17527211018069488,
        2.1464642871259017e-17,
        0.9845200289444631,
        0.0,
        2.43033610129065e-16,
        1.0,
        2.1464642871259017e-17,
        0.0,
        -0.9845200289444631,
        2.43033610129065e-16,
        -0.17527211018069488,
        0.0,
        7.029476642608643,
        0.2535092532634735,
        7.075153350830078,
        1.0
      ],
      "name": "bowl_water"
    },
    {
      "mesh": 1,
      "name": "bowl_water_M_Waterbowl_0"
    },
    {
      "children": [
        8
      ],
      "matrix": [
        0.9479882369323461,
        0.0,
        0.31830536068043513,
        0.0,
        0.0,
        1.0,
        0.0,
        0.0,
        -0.31830536068043513,
        0.0,
        0.9479882369323461,
        0.0,
        0.45844218134880066,
        -0.06330741196870804,
        -2.821831703186035,
        1.0
      ],
      "name": "cat_tree"
    },
    {
      "mesh": 2,
      "name": "cat_tree_M_CatTree_0"
    },
    {
      "children": [
        10
      ],
      "matrix": [
        0.8830975145519161,
        0.17042365730655534,
        -0.4371436340866536,
        0.0,
        -0.4691891135063498,
        0.3195830849486403,
        -0.8232425083666635,
        0.0,
        -0.0005962879789969122,
        0.9321064471641467,
        0.36218395270315074,
        0.0,
        -4.861547946929932,
        0.4209495186805725,
        4.184103012084961,
        1.0
      ],
      "name": "toy_busybuddy"
    },
    {
      "mesh": 3,
      "name": "toy_busybuddy_M_Toy_0"
    },
    {
      "children": [
        12
      ],
      "matrix": [
        1.0,
        0.0,
        0.0,
        0.0,
        0.0,
        1.0,
        0.0,
        0.0,
        0.0,
        0.0,
        1.0,
        0.0,
        3.107800006866455,
        -0.16695038974285126,
        0.0,
        1.0
      ],
      "name": "pCube2"
    },
    {
      "mesh": 4,
      "name": "pCube2_M_Collar_0"
    },
    {
      "children": [
        14
      ],
      "matrix": [
        0.9497834626424358,
        0.0,
        -0.31290793229150426,
        0.0,
        0.0,
        1.0,
        0.0,
        0.0,
        0.31290793229150426,
        0.0,
        0.9497834626424358,
        0.0,
        -6.0563764572143555,
        1.6433764696121216,
        -3.7572133541107178,
        1.0
      ],
      "name": "pCube3"
    },
    {
      "mesh": 5,
      "name": "pCube3_M_litterbox_0"
    },
    {
      "children": [
        16
      ],
      "name": "pPlane1"
    },
    {
      "mesh": 6,
      "name": "pPlane1_M_ground_0"
    },
    {
      "children": [
        18
      ],
      "matrix": [
        1.0,
        0.0,
        0.0,
        0.0,
        0.0,
        2.220446049250313e-16,
        1.0,
        0.0,
        0.0,
        -0.6022766828536987,
        1.3373228809980791e-16,
        0.0,
        0.0,
        6.016656398773193,
        -10.024677276611328,
        1.0
      ],
      "name": "pPlane2"
    },
    {
      "mesh": 7,
      "name": "pPlane2_M_wall_0"
    }
  ],
  "samplers": [
    {
      "magFilter": 9729,
      "minFilter": 9987,
      "wrapS": 10497,
      "wrapT": 10497
    }
  ],
  "scene": 0,
  "scenes": [
    {
      "name": "Sketchfab_Scene",
      "nodes": [
        0
      ]
    }
  ],
  "textures": [
    {
      "sampler": 0,
      "source": 0
    },
    {
      "sampler": 0,
      "source": 1
    },
    {
      "sampler": 0,
      "source": 2
    },
    {
      "sampler": 0,
      "source": 3
    },
    {
      "sampler": 0,
      "source": 4
    },
    {
      "sampler": 0,
      "source": 5
    },
    {
      "sampler": 0,
      "source": 6
    },
    {
      "sampler": 0,
      "source": 7
    },
    {
      "sampler": 0,
      "source": 8
    },
    {
      "sampler": 0,
      "source": 9
    },
    {
      "sampler": 0,
      "source": 10
    },
    {
      "sampler": 0,
      "source": 11
    },
    {
      "sampler": 0,
      "source": 12
    },
    {
      "sampler": 0,
      "source": 13
    },
    {
      "sampler": 0,
      "source": 14
    },
    {
      "sampler": 0,
      "source": 15
    },
    {
      "sampler": 0,
      "source": 16
    },
    {
      "sampler": 0,
      "source": 17
    },
    {
      "sampler": 0,
      "source": 18
    }
  ]
}
